<svg width="155" height="60" viewBox="0 0 155 60" fill="none" xmlns="http://www.w3.org/2000/svg">
<path d="M143.131 15.6559L127.728 6.70967C124.664 4.93015 121.127 4.61378 117.895 5.83019C114.663 7.04657 112 9.69608 110.493 13.1958C108.985 16.6956 108.757 20.7589 109.858 24.4919C110.958 28.225 113.298 31.3219 116.362 33.1014L131.765 42.0476C134.829 43.827 138.366 44.1437 141.598 42.927C144.831 41.7107 147.493 39.0612 149.001 35.5614C150.508 32.0617 150.736 27.9984 149.636 24.2654C148.535 20.5323 146.195 17.4354 143.131 15.6559ZM126.874 25.4597L123.023 23.2231L121.129 27.6217L117.278 25.3852L119.173 20.9866L115.322 18.75L117.216 14.3514L121.067 16.5879L122.961 12.1893L126.812 14.4259L124.917 18.8245L128.768 21.0611L126.874 25.4597ZM131.719 33.7723C130.953 33.3274 130.368 32.5532 130.093 31.6199C129.817 30.6866 129.875 29.6708 130.251 28.7959C130.628 27.9209 131.294 27.2586 132.102 26.9545C132.91 26.6504 133.794 26.7295 134.56 27.1743C135.326 27.6192 135.911 28.3934 136.186 29.3267C136.461 30.26 136.404 31.2758 136.027 32.1507C135.65 33.0257 134.985 33.6881 134.177 33.9921C133.369 34.2962 132.484 34.2172 131.719 33.7723ZM140.336 30.5292C139.571 30.0843 138.986 29.3101 138.71 28.3768C138.435 27.4436 138.492 26.4278 138.869 25.5528C139.246 24.6779 139.912 24.0155 140.72 23.7114C141.528 23.4073 142.412 23.4864 143.178 23.9312C143.944 24.3762 144.529 25.1504 144.804 26.0836C145.079 27.0169 145.022 28.0327 144.645 28.9076C144.268 29.7826 143.603 30.445 142.795 30.7491C141.987 31.0532 141.102 30.9741 140.336 30.5292Z" fill="#01C38D"/>
<path d="M7.21859 44.7429C6.49034 44.7429 5.96873 44.5599 5.65382 44.1943C5.33892 43.8056 5.18144 43.0856 5.18144 42.0343C5.18144 41.3257 5.24049 40.4229 5.35859 39.3257C5.49635 38.2057 5.71287 36.6743 6.00811 34.7314C6.51987 31.1429 6.92335 28.0343 7.21859 25.4057C7.39573 23.76 7.4843 22.3886 7.4843 21.2914C7.4843 20.2629 7.15954 19.7486 6.51001 19.7486C5.99826 19.7486 5.37826 20.0572 4.65001 20.6743C3.94144 21.2686 3.15414 22.2286 2.28811 23.5543C2.01255 23.9886 1.70748 24.2057 1.37287 24.2057C1.09732 24.2057 0.851286 24.0571 0.634777 23.76C0.437952 23.44 0.339539 23.0857 0.339539 22.6971C0.339539 22.3314 0.398586 21.9657 0.516681 21.6C0.654458 21.2114 0.870967 20.7772 1.16621 20.2972C2.11097 18.7657 3.16398 17.5886 4.32525 16.7657C5.48654 15.92 6.64778 15.4972 7.80906 15.4972C8.89159 15.4972 9.71826 15.8971 10.2891 16.6972C10.8795 17.4972 11.1748 18.6629 11.1748 20.1943C11.1748 20.8114 11.1256 21.5429 11.0272 22.3886C10.9287 23.2114 10.8402 23.8857 10.7614 24.4114C10.6827 24.9372 10.6237 25.3029 10.5843 25.5086C11.7062 21.7829 12.9659 19.1886 14.3633 17.7257C15.7608 16.24 17.2961 15.4972 18.9691 15.4972C20.2484 15.4972 21.2523 16.0229 21.9805 17.0743C22.7284 18.1257 23.1024 19.6114 23.1024 21.5314C23.1024 22.2857 23.0138 23.2229 22.8367 24.3429C23.8208 21.1886 24.9722 18.9257 26.291 17.5543C27.6097 16.1829 29.1253 15.4972 30.8376 15.4972C32.2154 15.4972 33.2684 16.0114 33.9967 17.04C34.7446 18.0686 35.1186 19.5086 35.1186 21.36C35.1186 22.3657 34.9906 23.5886 34.7348 25.0286L32.9338 34.8343C32.737 35.9772 32.6386 36.96 32.6386 37.7829C32.6386 38.7429 32.8256 39.4629 33.1995 39.9429C33.5932 40.4229 34.1344 40.6629 34.8233 40.6629C35.4729 40.6629 36.1027 40.4114 36.7129 39.9086C37.3428 39.4057 38.0809 38.5714 38.9272 37.4057C39.1633 37.0857 39.4291 36.9257 39.7243 36.9257C39.98 36.9257 40.1771 37.0629 40.3148 37.3371C40.4724 37.6114 40.551 37.9886 40.551 38.4686C40.551 39.36 40.3639 40.0686 39.99 40.5943C38.9666 42.0343 37.9529 43.0856 36.9491 43.7486C35.9453 44.4116 34.8923 44.7429 33.79 44.7429C32.117 44.7429 30.8081 44.1716 29.8633 43.0286C28.9186 41.8629 28.4462 40.3086 28.4462 38.3657C28.4462 37.0171 28.6824 35.0628 29.1548 32.5029L30.3357 26.2286C30.3751 26.0229 30.444 25.6572 30.5424 25.1314C30.6408 24.6057 30.7195 24.1143 30.7786 23.6572C30.8376 23.1771 30.8672 22.7086 30.8672 22.2514C30.8672 21.4514 30.7294 20.8572 30.4538 20.4686C30.198 20.0571 29.824 19.8514 29.3319 19.8514C28.4068 19.8514 27.4325 20.5486 26.4091 21.9429C25.4053 23.3143 24.4408 25.6 23.5157 28.8C22.6103 32 21.8722 36.16 21.3014 41.28C21.1637 42.6514 20.9176 43.5771 20.5633 44.0571C20.2287 44.5144 19.6776 44.7429 18.91 44.7429C18.2408 44.7429 17.7487 44.5599 17.4338 44.1943C17.1386 43.8287 16.991 43.143 16.991 42.1371C16.991 41.2 17.0992 39.9771 17.3157 38.4686C17.5322 36.9372 17.8078 35.1429 18.1424 33.0857C19.0478 27.5543 19.5005 23.9886 19.5005 22.3886C19.5005 21.52 19.3529 20.88 19.0576 20.4686C18.7821 20.0571 18.3589 19.8514 17.7881 19.8514C16.8237 19.8514 15.8297 20.4914 14.8062 21.7714C13.7827 23.0286 12.7789 25.28 11.7948 28.5257C10.8303 31.7486 10.0233 36.1143 9.37382 41.6229C9.23606 42.7886 9.02939 43.5999 8.75382 44.0571C8.49796 44.5144 7.9862 44.7429 7.21859 44.7429ZM53.2292 34.0457C53.485 34.0457 53.6817 34.1943 53.8197 34.4914C53.9574 34.7886 54.0264 35.1657 54.0264 35.6229C54.0264 36.72 53.7407 37.3714 53.1702 37.5771C51.9892 38.0571 50.6902 38.3314 49.273 38.4C48.8988 40.32 48.1607 41.8629 47.0588 43.0286C45.9564 44.1716 44.7064 44.7429 43.3092 44.7429C42.1283 44.7429 41.1145 44.4116 40.2683 43.7486C39.4416 43.0856 38.8116 42.2057 38.3788 41.1086C37.9455 40.0114 37.7292 38.8229 37.7292 37.5429C37.7292 35.8057 38.0145 34.2629 38.5854 32.9143C39.156 31.5429 39.9435 30.48 40.9473 29.7257C41.9511 28.9486 43.0631 28.56 44.2835 28.56C45.7793 28.56 46.9798 29.1657 47.8854 30.3771C48.8103 31.5657 49.3516 33.04 49.5092 34.8C50.4341 34.7314 51.5364 34.5029 52.8159 34.1143C52.9731 34.0686 53.1111 34.0457 53.2292 34.0457ZM43.5454 41.1086C44.175 41.1086 44.7164 40.8114 45.1692 40.2171C45.6416 39.6228 45.9564 38.7657 46.114 37.6457C45.5036 37.1657 45.0312 36.5371 44.6968 35.76C44.3817 34.9829 44.2245 34.16 44.2245 33.2914C44.2245 32.9257 44.254 32.56 44.313 32.1943H44.1654C43.3779 32.1943 42.7188 32.64 42.1873 33.5314C41.6755 34.4 41.4197 35.6343 41.4197 37.2343C41.4197 38.4914 41.6264 39.4514 42.0397 40.1143C42.4726 40.7772 42.9745 41.1086 43.5454 41.1086ZM54.5039 44.7429C53.6182 44.7429 52.8897 44.2744 52.3192 43.3372C51.7678 42.3771 51.4925 41.1886 51.4925 39.7714C51.4925 38.0571 51.5907 36.4914 51.7877 35.0743C51.9844 33.6343 52.3092 32.1143 52.762 30.5143C52.9587 29.8286 53.2344 29.3371 53.5887 29.04C53.943 28.7429 54.5039 28.5943 55.2715 28.5943C55.7044 28.5943 55.9997 28.6743 56.1573 28.8343C56.3344 28.9943 56.423 29.2343 56.423 29.5543C56.423 29.7372 56.3145 30.3543 56.0982 31.4057C55.9011 32.2514 55.7439 33.0171 55.6258 33.7029C55.232 36.1029 55.0354 37.7028 55.0354 38.5029C55.0354 38.9829 55.0844 39.3257 55.183 39.5314C55.2811 39.7143 55.4387 39.8057 55.6553 39.8057C55.9506 39.8057 56.3145 39.4629 56.7477 38.7771C57.2002 38.0914 57.6726 37.0514 58.1649 35.6571C58.6764 34.2629 59.1687 32.5486 59.6411 30.5143C59.7983 29.8286 60.0345 29.3371 60.3496 29.04C60.684 28.7429 61.1763 28.5943 61.8258 28.5943C62.2783 28.5943 62.5934 28.6629 62.7706 28.8C62.9477 28.9143 63.0363 29.1429 63.0363 29.4857C63.0363 30.0571 62.7901 31.6229 62.2982 34.1829C61.7468 37.1086 61.4715 38.9143 61.4715 39.6C61.4715 40.0343 61.5501 40.3771 61.7077 40.6286C61.8649 40.8571 62.0716 40.9714 62.3277 40.9714C62.7211 40.9714 63.1839 40.6971 63.7153 40.1486C64.2663 39.5772 64.9945 38.6628 65.9001 37.4057C66.1363 37.0857 66.402 36.9257 66.6973 36.9257C66.953 36.9257 67.1497 37.0629 67.2877 37.3371C67.4449 37.6114 67.5239 37.9886 67.5239 38.4686C67.5239 39.3828 67.3368 40.0914 66.963 40.5943C66.1164 41.8057 65.2011 42.8 64.2173 43.5771C63.2526 44.3541 62.1506 44.7429 60.9106 44.7429C59.9658 44.7429 59.2668 44.3199 58.8144 43.4743C58.3811 42.6286 58.1649 41.44 58.1649 39.9086C57.8301 41.4629 57.3282 42.6629 56.6592 43.5086C55.9897 44.3314 55.2715 44.7429 54.5039 44.7429ZM88.5423 16.1143C89.1523 16.2514 89.6051 16.4914 89.9004 16.8343C90.2152 17.1771 90.3728 17.5771 90.3728 18.0343C90.3728 18.7886 90.1857 19.3371 89.8118 19.68C89.4575 20.0229 88.8866 20.16 88.0994 20.0914C86.328 19.9315 84.9404 19.8286 83.9366 19.7829C82.9523 19.7143 81.6533 19.6686 80.0394 19.6457C79.3109 23.8514 78.6418 28.08 78.0318 32.3314C77.8152 33.8857 77.589 35.6914 77.3528 37.7486C77.1166 39.7829 76.959 41.4286 76.8804 42.6857C76.8409 43.3487 76.6047 43.863 76.1718 44.2286C75.7385 44.5714 75.2171 44.7429 74.607 44.7429C73.9575 44.7429 73.4556 44.5599 73.1013 44.1943C72.747 43.8287 72.5699 43.3487 72.5699 42.7543C72.5699 42.2057 72.6385 41.3028 72.7766 40.0457C72.9338 38.7657 73.1109 37.4286 73.308 36.0343C73.5243 34.64 73.6918 33.4286 73.8099 32.4C74.0262 30.6629 74.2723 28.9371 74.548 27.2229C74.8233 25.5086 75.099 23.8857 75.3747 22.3543C75.4337 22.0114 75.5024 21.6228 75.5813 21.1886C75.6599 20.7314 75.7485 20.2286 75.847 19.68C73.918 19.7486 72.4024 19.9315 71.3004 20.2286C70.198 20.5257 69.4109 20.9486 68.9385 21.4971C68.4857 22.0229 68.2594 22.7086 68.2594 23.5543C68.2594 24.3314 68.4561 25.0743 68.8499 25.7829C68.9285 25.9428 68.968 26.1143 68.968 26.2971C68.968 26.7314 68.7414 27.1428 68.289 27.5314C67.8557 27.8971 67.4032 28.08 66.9309 28.08C66.5961 28.08 66.3205 27.9657 66.1042 27.7371C65.7104 27.3486 65.3857 26.8 65.1299 26.0914C64.8738 25.36 64.7461 24.5371 64.7461 23.6229C64.7461 21.68 65.2871 20.1257 66.3699 18.96C67.4719 17.7715 69.1352 16.9029 71.3594 16.3543C73.6032 15.8057 76.4766 15.5314 79.9804 15.5314C82.1452 15.5314 83.8676 15.5772 85.147 15.6686C86.4461 15.76 87.5776 15.9086 88.5423 16.1143ZM87.8333 44.7429C86.9476 44.7429 86.2195 44.2744 85.6486 43.3372C85.0976 42.3771 84.8219 41.1886 84.8219 39.7714C84.8219 38.0571 84.9205 36.4914 85.1172 35.0743C85.3139 33.6343 85.6386 32.1143 86.0914 30.5143C86.2881 29.8286 86.5638 29.3371 86.9181 29.04C87.2724 28.7429 87.8334 28.5943 88.601 28.5943C89.0339 28.5943 89.3291 28.6743 89.4867 28.8343C89.6638 28.9943 89.7524 29.2343 89.7524 29.5543C89.7524 29.7372 89.6443 30.3543 89.4276 31.4057C89.2309 32.2514 89.0733 33.0171 88.9552 33.7029C88.5615 36.1029 88.3648 37.7028 88.3648 38.5029C88.3648 38.9829 88.4139 39.3257 88.5124 39.5314C88.6109 39.7143 88.7681 39.8057 88.9848 39.8057C89.28 39.8057 89.6443 39.4629 90.0772 38.7771C90.53 38.0914 91.0024 37.0514 91.4943 35.6571C92.0062 34.2629 92.4981 32.5486 92.9705 30.5143C93.1281 29.8286 93.3643 29.3371 93.6791 29.04C94.0138 28.7429 94.5057 28.5943 95.1552 28.5943C95.6081 28.5943 95.9229 28.6629 96.1 28.8C96.2771 28.9143 96.3657 29.1429 96.3657 29.4857C96.3657 30.0571 96.1196 31.6229 95.6276 34.1829C95.0766 37.1086 94.801 38.9143 94.801 39.6C94.801 40.0343 94.8796 40.3771 95.0371 40.6286C95.1947 40.8571 95.4014 40.9714 95.6572 40.9714C96.0509 40.9714 96.5133 40.6971 97.0448 40.1486C97.5958 39.5772 98.3243 38.6628 99.2295 37.4057C99.4657 37.0857 99.7314 36.9257 100.027 36.9257C100.282 36.9257 100.479 37.0629 100.617 37.3371C100.775 37.6114 100.853 37.9886 100.853 38.4686C100.853 39.3828 100.666 40.0914 100.292 40.5943C99.4462 41.8057 98.5309 42.8 97.5467 43.5771C96.5824 44.3541 95.48 44.7429 94.24 44.7429C93.2952 44.7429 92.5966 44.3199 92.1438 43.4743C91.7109 42.6286 91.4943 41.44 91.4943 39.9086C91.1596 41.4629 90.6577 42.6629 89.9886 43.5086C89.3195 44.3314 88.601 44.7429 87.8333 44.7429ZM114.166 34.0457C114.422 34.0457 114.619 34.1943 114.756 34.4914C114.894 34.7886 114.963 35.1657 114.963 35.6229C114.963 36.1943 114.894 36.64 114.756 36.96C114.619 37.2571 114.402 37.4628 114.107 37.5771C112.926 38.0571 111.627 38.3314 110.21 38.4C109.816 40.2972 109.068 41.8286 107.966 42.9943C106.884 44.16 105.683 44.7429 104.364 44.7429C102.376 44.7429 100.929 43.863 100.024 42.1029C99.1188 40.3428 98.666 37.7943 98.666 34.4571C98.666 31.5086 98.9808 28.3086 99.6108 24.8571C100.241 21.3828 101.156 18.4343 102.356 16.0114C103.577 13.5657 105.024 12.3429 106.696 12.3429C107.602 12.3429 108.33 12.8 108.881 13.7143C109.432 14.6057 109.708 15.7714 109.708 17.2114C109.708 19.0857 109.403 20.9486 108.793 22.8C108.183 24.6514 107.169 26.5943 105.752 28.6286C107.07 28.7429 108.143 29.3829 108.97 30.5486C109.796 31.6914 110.288 33.1086 110.446 34.8C111.371 34.7314 112.473 34.5029 113.753 34.1143C113.871 34.0686 114.008 34.0457 114.166 34.0457ZM106.017 15.7372C105.624 15.7372 105.191 16.4229 104.718 17.7943C104.266 19.1429 103.843 20.9829 103.449 23.3143C103.055 25.6457 102.76 28.1943 102.563 30.96C103.862 28.1943 104.896 25.76 105.663 23.6572C106.45 21.5314 106.844 19.6457 106.844 18C106.844 17.2686 106.765 16.7086 106.608 16.32C106.47 15.9314 106.273 15.7372 106.017 15.7372ZM104.482 41.1086C105.092 41.1086 105.634 40.8114 106.106 40.2171C106.578 39.6228 106.893 38.7657 107.051 37.6457C106.441 37.1657 105.968 36.5371 105.634 35.76C105.319 34.9829 105.161 34.16 105.161 33.2914C105.161 32.9714 105.201 32.5371 105.279 31.9886H105.191C104.384 31.9886 103.705 32.4571 103.154 33.3943C102.622 34.3086 102.356 35.5428 102.356 37.0971C102.356 38.4 102.563 39.3943 102.976 40.08C103.409 40.7657 103.911 41.1086 104.482 41.1086ZM122.984 37.9543C123.239 37.9543 123.436 38.0914 123.574 38.3657C123.731 38.64 123.81 39.0171 123.81 39.4971C123.81 40.32 123.643 41.0286 123.308 41.6229C122.757 42.6057 122.029 43.3714 121.124 43.92C120.238 44.4686 119.175 44.7429 117.935 44.7429C116.046 44.7429 114.579 44.0914 113.536 42.7886C112.493 41.4629 111.971 39.68 111.971 37.44C111.971 35.8629 112.257 34.4 112.827 33.0514C113.398 31.68 114.186 30.5943 115.189 29.7943C116.213 28.9943 117.364 28.5943 118.644 28.5943C119.785 28.5943 120.7 28.9943 121.389 29.7943C122.078 30.5714 122.423 31.6343 122.423 32.9829C122.423 34.56 121.93 35.92 120.947 37.0629C119.982 38.1828 118.328 39.0743 115.987 39.7371C116.459 40.7886 117.256 41.3143 118.378 41.3143C119.185 41.3143 119.844 41.0971 120.356 40.6629C120.887 40.2286 121.497 39.4971 122.187 38.4686C122.423 38.1257 122.688 37.9543 122.984 37.9543ZM118.142 31.9543C117.413 31.9543 116.793 32.4457 116.282 33.4286C115.789 34.4114 115.544 35.6 115.544 36.9943V37.0629C116.705 36.7428 117.62 36.2628 118.289 35.6229C118.958 34.9829 119.293 34.24 119.293 33.3943C119.293 32.96 119.185 32.6172 118.968 32.3657C118.771 32.0914 118.496 31.9543 118.142 31.9543Z" fill="white" fill-opacity="0.94"/>
</svg>
